<?xml version="1.0" standalone="no"?>
<!DOCTYPE svg PUBLIC "-//W3C//DTD SVG 20010904//EN"
 "http://www.w3.org/TR/2001/REC-SVG-20010904/DTD/svg10.dtd">
<svg version="1.0" xmlns="http://www.w3.org/2000/svg"
 width="1023.000000pt" height="1023.000000pt" viewBox="0 0 1023.000000 1023.000000"
 preserveAspectRatio="xMidYMid meet">
<metadata>
Created by potrace 1.16, written by Peter Selinger 2001-2019
</metadata>
<g transform="translate(0.000000,1023.000000) scale(0.100000,-0.100000)"
fill="#000000" stroke="none">
<path d="M615 9890 c-137 -28 -240 -127 -271 -257 -18 -77 -20 -1681 -3 -1765
30 -140 134 -241 278 -268 73 -14 1659 -14 1732 0 75 14 137 47 187 99 52 53
76 98 91 169 17 84 15 1688 -3 1765 -25 108 -107 200 -218 245 -39 16 -117 17
-898 19 -470 0 -873 -3 -895 -7z m1540 -339 c61 -28 105 -70 131 -126 l24 -50
0 -630 c0 -612 -1 -631 -21 -675 -27 -60 -64 -98 -124 -126 l-50 -24 -630 0
-630 0 -50 24 c-60 28 -97 66 -124 126 -20 44 -21 63 -21 675 l0 630 24 50
c26 56 70 98 131 126 37 17 82 19 670 19 588 0 633 -2 670 -19z"/>
<path d="M1073 9219 c-80 -39 -78 -25 -81 -457 -3 -372 -2 -385 18 -427 40
-83 23 -80 475 -80 452 0 435 -3 475 79 19 40 20 60 20 412 0 427 -2 434 -82
473 -43 20 -56 21 -414 21 -353 0 -371 -1 -411 -21z"/>
<path d="M3715 9891 c-11 -5 -33 -23 -50 -41 l-30 -31 0 -249 0 -250 38 -37
c37 -38 37 -38 122 -38 85 0 85 0 122 38 l38 37 0 250 0 250 -37 37 c-36 36
-41 38 -110 40 -40 2 -82 -1 -93 -6z"/>
<path d="M4375 9891 c-11 -5 -33 -23 -50 -41 -28 -30 -30 -36 -30 -115 0 -84
0 -85 37 -122 35 -35 41 -37 120 -43 94 -6 121 -18 148 -63 28 -45 28 -159 0
-204 -27 -45 -54 -57 -148 -63 -79 -6 -85 -8 -120 -43 l-37 -37 0 -250 0 -250
38 -37 c37 -38 37 -38 122 -38 84 0 85 0 122 37 35 35 37 41 43 120 9 133 35
160 167 169 80 5 86 7 120 42 35 34 37 40 43 119 3 46 11 93 18 106 24 42 70
62 147 62 120 0 165 -45 165 -167 0 -74 -20 -121 -62 -145 -13 -7 -60 -15
-106 -18 -79 -6 -85 -8 -120 -43 -37 -37 -37 -38 -37 -122 0 -84 0 -85 37
-122 35 -35 41 -37 120 -43 133 -9 160 -35 169 -167 5 -80 7 -86 42 -121 l37
-37 743 -5 c807 -5 771 -3 807 -63 18 -29 20 -52 20 -267 0 -215 -2 -238 -20
-267 -27 -45 -54 -57 -148 -63 -79 -6 -85 -8 -120 -43 l-37 -37 -5 -248 c-4
-175 -9 -254 -18 -270 -23 -41 -61 -57 -149 -63 -80 -5 -86 -7 -120 -42 -35
-34 -37 -40 -43 -119 -6 -94 -18 -121 -63 -148 -29 -18 -52 -20 -267 -20 -215
0 -238 2 -267 20 -45 27 -57 54 -63 148 -6 79 -8 85 -43 120 l-37 37 -580 0
-580 0 -37 -38 c-38 -37 -38 -37 -38 -122 0 -84 0 -85 37 -122 35 -35 41 -37
120 -43 94 -6 121 -18 148 -63 28 -45 28 -159 0 -204 -27 -45 -54 -57 -148
-63 -79 -6 -85 -8 -120 -43 l-37 -37 0 -250 0 -250 38 -37 c37 -38 37 -38 122
-38 84 0 85 0 122 37 35 35 37 41 43 120 9 133 35 160 167 169 80 5 86 7 120
42 35 34 37 40 43 119 6 94 18 121 63 148 29 18 52 20 267 20 215 0 238 -2
267 -20 45 -27 57 -54 63 -148 6 -79 8 -85 43 -120 37 -37 38 -37 122 -37 84
0 85 0 122 37 35 35 37 41 43 120 3 46 11 93 18 106 24 42 70 62 147 62 77 0
123 -20 147 -62 7 -13 15 -60 18 -106 6 -79 8 -85 43 -120 37 -37 38 -37 122
-37 85 0 85 0 122 38 l38 37 5 248 c4 178 9 253 18 270 24 42 71 62 147 62 77
0 123 -20 147 -62 7 -13 15 -60 18 -106 6 -79 8 -85 43 -120 37 -37 38 -37
122 -37 84 0 85 0 122 37 35 35 37 41 43 120 6 94 18 121 63 148 45 28 159 28
204 0 56 -33 58 -44 63 -312 l5 -248 38 -37 37 -38 250 0 250 0 37 38 c38 37
38 37 38 122 0 84 0 85 -37 122 -35 35 -41 37 -120 43 -46 3 -93 11 -106 18
-42 24 -62 70 -62 147 0 76 20 123 62 147 17 9 92 14 270 18 l248 5 37 38 c38
37 38 37 38 122 0 84 0 85 -37 122 -35 35 -41 37 -120 43 -133 9 -160 35 -169
167 -5 80 -7 86 -42 121 -37 37 -38 37 -122 37 -84 0 -85 0 -122 -37 -35 -35
-37 -41 -43 -120 -6 -94 -18 -121 -63 -148 -45 -28 -159 -28 -204 0 -45 27
-57 54 -63 148 -6 79 -8 85 -43 120 -37 37 -38 37 -122 37 -84 0 -85 0 -122
-37 -35 -35 -37 -41 -43 -120 -3 -46 -11 -93 -18 -106 -24 -42 -70 -62 -147
-62 -120 0 -165 45 -165 167 0 74 20 121 62 145 13 7 60 15 106 18 79 6 85 8
120 43 l37 37 0 580 0 580 -37 37 c-35 35 -41 37 -120 43 -94 6 -121 18 -148
63 -28 45 -28 159 0 204 27 45 54 57 148 63 79 6 85 8 120 43 37 37 37 38 37
122 0 85 0 85 -38 122 l-37 38 -250 0 -250 0 -37 -38 -38 -37 -5 -248 c-4
-178 -9 -253 -18 -270 -24 -42 -71 -62 -147 -62 -77 0 -123 20 -147 62 -7 13
-15 60 -18 106 -6 79 -8 85 -43 120 -37 37 -38 37 -122 37 -84 0 -85 0 -122
-37 -35 -35 -37 -41 -43 -120 -3 -46 -11 -93 -18 -106 -24 -42 -71 -62 -145
-62 -80 0 -119 17 -147 63 -18 29 -20 52 -20 267 0 215 2 238 20 267 27 45 54
57 148 63 79 6 85 8 120 43 37 37 37 38 37 122 0 84 0 85 -37 122 -35 35 -41
37 -120 43 -133 9 -160 35 -169 167 -5 80 -7 86 -42 121 l-37 37 -568 2 c-312
1 -576 -2 -587 -6z"/>
<path d="M6355 9891 c-11 -5 -33 -23 -50 -41 -28 -30 -30 -36 -30 -115 0 -84
0 -85 38 -122 l37 -38 415 0 415 0 37 38 c38 37 38 37 38 122 0 85 0 85 -38
122 l-37 38 -403 2 c-221 1 -411 -2 -422 -6z"/>
<path d="M7875 9890 c-137 -28 -240 -127 -271 -257 -18 -77 -20 -1681 -3
-1765 30 -140 134 -241 278 -268 73 -14 1659 -14 1732 0 117 22 219 103 261
209 l23 56 3 840 c3 604 0 859 -8 907 -21 120 -103 218 -222 266 -39 16 -117
17 -898 19 -470 0 -873 -3 -895 -7z m1540 -339 c61 -28 105 -70 131 -126 l24
-50 0 -630 c0 -612 -1 -631 -21 -675 -27 -60 -64 -98 -124 -126 l-50 -24 -630
0 -630 0 -50 24 c-60 28 -97 66 -124 126 -20 44 -21 63 -21 675 l0 630 24 50
c26 56 70 98 131 126 37 17 82 19 670 19 588 0 633 -2 670 -19z"/>
<path d="M8333 9219 c-80 -39 -78 -25 -81 -457 -3 -372 -2 -385 18 -427 40
-83 23 -80 475 -80 452 0 435 -3 475 79 19 40 20 60 20 412 0 427 -2 434 -82
473 -43 20 -56 21 -414 21 -353 0 -371 -1 -411 -21z"/>
<path d="M3055 9561 c-11 -5 -33 -23 -50 -41 -28 -30 -30 -36 -30 -115 0 -84
0 -85 38 -122 37 -38 37 -38 122 -38 85 0 85 0 122 38 38 37 38 37 38 122 0
84 0 85 -37 122 -36 36 -41 38 -110 40 -40 2 -82 -1 -93 -6z"/>
<path d="M3055 8901 c-11 -5 -33 -23 -50 -41 -28 -30 -30 -36 -30 -115 0 -84
0 -85 37 -122 35 -35 41 -37 120 -43 94 -6 121 -18 148 -63 28 -45 28 -159 0
-204 -27 -45 -54 -57 -148 -63 -79 -6 -85 -8 -120 -43 l-37 -37 0 -250 0 -250
38 -37 c37 -38 37 -38 122 -38 84 0 85 0 122 37 35 35 37 41 43 120 9 133 35
160 167 169 80 5 86 7 121 42 l37 37 5 248 c6 317 8 321 168 332 79 6 85 8
120 43 37 37 37 38 37 122 0 85 0 85 -38 122 l-37 38 -403 2 c-221 1 -411 -2
-422 -6z"/>
<path d="M4045 8241 c-11 -5 -33 -23 -50 -41 -28 -30 -30 -36 -30 -115 0 -84
0 -85 37 -122 35 -35 41 -37 121 -42 132 -9 158 -36 167 -169 6 -79 8 -85 43
-120 37 -37 38 -37 122 -37 85 0 85 0 122 38 l38 37 0 250 0 250 -38 37 -37
38 -238 2 c-130 1 -246 -2 -257 -6z"/>
<path d="M3715 7911 c-11 -5 -33 -23 -49 -40 -27 -28 -30 -40 -35 -114 -9
-132 -36 -158 -169 -167 -79 -6 -85 -8 -119 -43 -35 -34 -37 -40 -42 -120 -6
-88 -22 -126 -63 -149 -17 -10 -125 -14 -435 -18 l-413 -5 -37 -38 c-38 -37
-38 -37 -38 -122 0 -85 0 -85 38 -122 l37 -38 580 0 580 0 37 37 c35 35 37 41
43 120 3 46 11 93 18 106 24 42 70 62 147 62 77 0 123 -20 147 -62 7 -13 15
-60 18 -106 6 -79 8 -85 43 -120 37 -37 38 -37 122 -37 85 0 85 0 122 38 l38
37 0 250 0 250 -37 37 c-35 35 -41 37 -121 42 -132 9 -158 36 -167 169 -6 79
-8 85 -43 120 -35 35 -41 37 -109 39 -40 2 -82 -1 -93 -6z"/>
<path d="M5035 7911 c-11 -5 -33 -23 -50 -41 l-30 -31 0 -249 0 -250 38 -37
c37 -38 37 -38 122 -38 85 0 85 0 122 38 l38 37 0 250 0 250 -37 37 c-36 36
-41 38 -110 40 -40 2 -82 -1 -93 -6z"/>
<path d="M5695 7911 c-11 -5 -33 -23 -50 -41 l-30 -31 0 -249 0 -250 38 -37
c37 -38 37 -38 122 -38 85 0 85 0 122 38 l38 37 0 250 0 250 -37 37 c-36 36
-41 38 -110 40 -40 2 -82 -1 -93 -6z"/>
<path d="M6355 7911 c-11 -5 -33 -23 -50 -41 -28 -30 -30 -36 -30 -115 0 -84
0 -85 38 -122 37 -38 37 -38 122 -38 85 0 85 0 122 38 38 37 38 37 38 122 0
84 0 85 -37 122 -36 36 -41 38 -110 40 -40 2 -82 -1 -93 -6z"/>
<path d="M415 7251 c-11 -5 -33 -23 -50 -41 -28 -30 -30 -36 -30 -115 0 -84 0
-85 38 -122 l37 -38 248 -5 c263 -5 277 -8 310 -57 15 -23 18 -61 22 -275 l5
-248 37 -37 c35 -35 41 -37 120 -43 94 -6 121 -18 148 -63 18 -29 20 -52 20
-267 0 -215 -2 -238 -20 -267 -27 -45 -54 -57 -148 -63 -79 -6 -85 -8 -120
-43 -37 -37 -37 -38 -37 -122 0 -85 0 -85 38 -122 l37 -38 250 0 250 0 37 37
c35 35 37 41 43 120 3 46 11 93 18 106 24 42 70 62 147 62 120 0 165 -45 165
-167 0 -74 -20 -121 -62 -145 -13 -7 -60 -15 -106 -18 -79 -6 -85 -8 -120 -43
-37 -37 -37 -38 -37 -122 0 -84 0 -85 37 -122 35 -35 41 -37 120 -43 94 -6
121 -18 148 -63 18 -29 20 -52 20 -265 0 -258 -4 -276 -63 -312 -45 -28 -159
-28 -204 0 -45 27 -57 54 -63 148 -6 79 -8 85 -43 120 -37 37 -38 37 -122 37
-84 0 -85 0 -122 -37 -35 -35 -37 -41 -43 -120 -6 -91 -17 -119 -57 -146 -24
-15 -69 -18 -440 -22 l-413 -5 -37 -38 -38 -37 0 -580 0 -580 38 -37 c37 -38
37 -38 122 -38 85 0 85 0 122 38 l38 37 5 413 c5 448 5 442 63 477 31 19 55
20 597 20 543 0 566 -1 597 -20 59 -36 63 -54 63 -312 0 -213 -2 -236 -20
-265 -27 -45 -54 -57 -148 -63 -79 -6 -85 -8 -120 -43 -37 -37 -37 -38 -37
-122 0 -85 0 -85 38 -122 l37 -38 415 0 415 0 37 38 c38 37 38 37 38 122 0 84
0 85 -37 122 -35 35 -41 37 -120 43 -46 3 -93 11 -106 18 -42 24 -62 70 -62
147 0 120 45 165 167 165 74 0 121 -20 145 -62 7 -13 15 -60 18 -106 6 -79 8
-85 43 -120 37 -37 38 -37 122 -37 84 0 85 0 122 37 35 35 37 41 43 120 9 133
35 160 167 169 80 5 86 7 121 42 l37 37 0 745 0 745 -38 37 c-37 38 -37 38
-122 38 -85 0 -85 0 -122 -38 l-38 -37 -5 -413 c-4 -310 -8 -418 -18 -435 -23
-41 -61 -57 -149 -63 -80 -5 -86 -7 -120 -42 -35 -34 -37 -40 -43 -119 -3 -46
-11 -93 -18 -106 -24 -42 -71 -62 -145 -62 -122 0 -167 45 -167 165 0 77 20
123 62 147 13 7 60 15 106 18 79 6 85 8 120 43 37 37 37 38 37 122 0 84 0 85
-37 122 -35 35 -41 37 -120 43 -94 6 -121 18 -148 63 -28 45 -28 159 0 204 27
45 54 57 148 63 79 6 85 8 120 43 37 37 37 38 37 122 0 84 0 85 -37 122 -35
35 -41 37 -120 43 -46 3 -93 11 -106 18 -42 24 -62 70 -62 147 0 120 45 165
167 165 74 0 121 -20 145 -62 7 -13 15 -60 18 -106 6 -79 8 -85 43 -120 37
-37 38 -37 122 -37 85 0 85 0 122 38 l38 37 5 248 c4 175 9 254 18 270 23 41
61 57 149 63 80 5 86 7 121 42 37 37 37 38 37 122 0 84 0 85 -37 122 -35 35
-41 37 -121 42 -132 9 -158 36 -167 169 -6 79 -8 85 -43 120 l-37 37 -250 0
-250 0 -37 -38 c-38 -37 -38 -37 -38 -122 0 -84 0 -85 37 -122 35 -35 41 -37
120 -43 94 -6 121 -18 148 -63 28 -45 28 -159 0 -204 -36 -59 -54 -63 -312
-63 -213 0 -236 2 -265 20 -45 27 -57 54 -63 148 -6 79 -8 85 -43 119 -34 35
-40 37 -119 43 -94 6 -121 18 -148 63 -28 45 -28 159 0 204 27 45 54 57 148
63 79 6 85 8 120 43 l37 37 0 250 0 250 -38 37 -37 38 -733 2 c-402 1 -741 -2
-752 -6z"/>
<path d="M6025 7251 c-11 -5 -33 -23 -50 -41 -28 -30 -30 -36 -30 -115 0 -84
0 -85 38 -122 37 -38 37 -38 122 -38 85 0 85 0 122 38 38 37 38 37 38 122 0
84 0 85 -37 122 -36 36 -41 38 -110 40 -40 2 -82 -1 -93 -6z"/>
<path d="M8665 7251 c-11 -5 -33 -23 -50 -41 -28 -30 -30 -36 -30 -115 0 -84
0 -85 38 -122 37 -38 37 -38 122 -38 85 0 85 0 122 38 38 37 38 37 38 122 0
84 0 85 -37 122 -36 36 -41 38 -110 40 -40 2 -82 -1 -93 -6z"/>
<path d="M9325 7251 c-11 -5 -33 -23 -50 -41 -28 -30 -30 -36 -30 -115 0 -84
0 -85 38 -122 37 -38 37 -38 122 -38 85 0 85 0 122 38 38 37 38 37 38 122 0
84 0 85 -37 122 -36 36 -41 38 -110 40 -40 2 -82 -1 -93 -6z"/>
<path d="M3715 6921 c-11 -5 -33 -23 -50 -41 l-30 -31 0 -249 0 -250 38 -37
c37 -38 37 -38 122 -38 85 0 85 0 122 38 l38 37 0 250 0 250 -37 37 c-36 36
-41 38 -110 40 -40 2 -82 -1 -93 -6z"/>
<path d="M9655 6921 c-11 -5 -33 -23 -50 -41 -28 -30 -30 -36 -30 -115 0 -84
0 -85 38 -122 37 -38 37 -38 122 -38 85 0 85 0 122 38 38 37 38 37 38 122 0
84 0 85 -37 122 -36 36 -41 38 -110 40 -40 2 -82 -1 -93 -6z"/>
<path d="M415 6591 c-11 -5 -33 -23 -50 -41 -28 -30 -30 -36 -30 -115 0 -84 0
-85 38 -122 37 -38 37 -38 122 -38 85 0 85 0 122 38 38 37 38 37 38 122 0 84
0 85 -37 122 -36 36 -41 38 -110 40 -40 2 -82 -1 -93 -6z"/>
<path d="M8665 6261 c-11 -5 -33 -23 -50 -41 l-30 -31 0 -249 0 -250 38 -37
37 -38 250 0 250 0 37 38 c38 37 38 37 38 122 0 84 0 85 -37 122 -35 35 -41
37 -121 42 -132 9 -158 36 -167 169 -6 79 -8 85 -43 120 -35 35 -41 37 -109
39 -40 2 -82 -1 -93 -6z"/>
<path d="M9325 6261 c-11 -5 -33 -23 -50 -41 -28 -30 -30 -36 -30 -115 0 -84
0 -85 38 -122 37 -38 37 -38 122 -38 85 0 85 0 122 38 38 37 38 37 38 122 0
84 0 85 -37 122 -36 36 -41 38 -110 40 -40 2 -82 -1 -93 -6z"/>
<path d="M3385 5931 c-11 -5 -33 -23 -50 -41 l-30 -31 0 -249 0 -250 38 -37
c37 -38 37 -38 122 -38 84 0 85 0 122 37 35 35 37 41 43 120 9 133 35 160 167
169 80 5 86 7 121 42 37 37 37 38 37 122 0 85 0 85 -38 122 l-37 38 -238 2
c-130 1 -246 -2 -257 -6z"/>
<path d="M5035 5931 c-11 -5 -33 -23 -50 -41 -28 -30 -30 -36 -30 -115 0 -84
0 -85 38 -122 37 -38 37 -38 122 -38 85 0 85 0 122 38 38 37 38 37 38 122 0
84 0 85 -37 122 -36 36 -41 38 -110 40 -40 2 -82 -1 -93 -6z"/>
<path d="M6025 5931 c-11 -5 -33 -23 -50 -41 -28 -30 -30 -36 -30 -115 0 -84
0 -85 38 -122 37 -38 37 -38 122 -38 85 0 85 0 122 38 38 37 38 37 38 122 0
84 0 85 -37 122 -36 36 -41 38 -110 40 -40 2 -82 -1 -93 -6z"/>
<path d="M6685 5931 c-11 -5 -33 -23 -50 -41 l-30 -31 0 -249 0 -250 38 -37
37 -38 413 -5 c314 -4 417 -8 435 -18 42 -24 62 -71 62 -147 0 -76 -20 -123
-62 -147 -17 -9 -92 -14 -270 -18 l-248 -5 -37 -38 -38 -37 -5 -248 c-4 -178
-9 -253 -18 -270 -24 -42 -71 -62 -147 -62 -77 0 -123 20 -147 62 -7 13 -15
60 -18 106 -6 79 -8 85 -43 120 l-37 37 -250 0 -250 0 -37 -37 c-35 -35 -37
-41 -42 -121 -9 -132 -36 -158 -169 -167 -79 -6 -85 -8 -119 -43 -35 -34 -37
-40 -43 -119 -6 -94 -18 -121 -63 -148 -45 -28 -159 -28 -204 0 -45 27 -57 54
-63 148 -6 79 -8 85 -43 120 l-37 37 -415 0 -415 0 -37 -38 c-38 -37 -38 -37
-38 -122 0 -84 0 -85 37 -122 35 -35 41 -37 120 -43 94 -6 121 -18 148 -63 28
-45 28 -159 0 -204 -27 -45 -54 -57 -148 -63 -79 -6 -85 -8 -120 -43 l-37 -37
0 -250 0 -250 38 -37 c37 -38 37 -38 122 -38 84 0 85 0 122 37 35 35 37 41 43
120 9 133 35 160 167 169 80 5 86 7 120 42 35 34 37 40 42 120 6 88 22 126 63
149 18 10 156 14 600 18 l578 5 37 37 c35 35 37 41 43 120 6 94 18 121 63 148
31 19 57 20 762 20 705 0 731 -1 762 -20 55 -33 58 -44 63 -312 l5 -247 34
-35 c19 -20 42 -37 50 -38 9 -1 -189 -5 -439 -8 l-455 -5 -53 -29 c-100 -56
-132 -127 -133 -295 0 -66 -3 -99 -9 -86 -4 11 -22 34 -40 50 l-31 30 -249 0
-250 0 -37 -37 c-35 -35 -37 -41 -43 -120 -9 -133 -35 -160 -167 -169 -80 -5
-86 -7 -121 -42 -37 -37 -37 -38 -37 -122 0 -85 0 -85 38 -122 l37 -38 248 -5
c317 -6 321 -8 332 -168 6 -79 8 -85 43 -120 37 -37 38 -37 122 -37 79 0 85 2
115 30 18 17 36 39 40 50 6 13 9 -19 9 -85 1 -58 6 -123 12 -145 18 -63 62
-118 121 -150 l53 -30 455 -5 c250 -3 448 -7 439 -8 -8 -1 -30 -18 -49 -37
-31 -32 -34 -41 -40 -117 -9 -133 -35 -160 -167 -169 -80 -5 -86 -7 -121 -42
-37 -37 -37 -38 -37 -122 0 -84 0 -85 37 -122 35 -35 41 -37 121 -42 88 -6
126 -22 149 -63 9 -16 14 -95 18 -270 l5 -248 38 -37 37 -38 580 0 580 0 37
38 c38 37 38 37 38 122 0 84 0 85 -37 122 -35 35 -41 37 -120 43 -46 3 -93 11
-106 18 -42 24 -62 70 -62 147 0 120 45 165 167 165 74 0 121 -20 145 -62 7
-13 15 -60 18 -106 6 -79 8 -85 43 -120 37 -37 38 -37 122 -37 85 0 85 0 122
38 l38 37 5 248 c4 175 9 254 18 270 23 41 61 57 149 63 80 5 86 7 121 42 37
37 37 38 37 122 0 84 0 85 -37 122 -35 35 -41 37 -120 43 -46 3 -93 11 -106
18 -42 24 -62 70 -62 147 0 77 20 123 62 147 13 7 60 15 106 18 79 6 85 8 120
43 37 37 37 38 37 122 0 85 0 85 -38 122 l-37 38 -250 0 -250 0 -37 -37 c-35
-35 -37 -41 -43 -120 -9 -133 -35 -160 -167 -169 -80 -5 -86 -7 -120 -42 -35
-34 -37 -40 -43 -119 -9 -133 -35 -160 -167 -169 -80 -5 -86 -7 -120 -42 -35
-34 -37 -40 -43 -119 -6 -94 -18 -121 -63 -148 -45 -28 -159 -28 -204 0 -45
27 -57 54 -63 148 -6 76 -9 85 -40 117 -19 19 -41 36 -49 37 -9 1 40 4 109 7
113 6 130 9 178 36 59 32 103 87 121 150 7 24 11 146 12 310 0 154 4 261 9
250 4 -11 22 -33 40 -50 l31 -30 249 0 250 0 37 37 c35 35 37 41 43 120 11
160 15 162 332 168 l248 5 37 38 38 37 0 250 0 250 -37 37 c-35 35 -41 37
-121 42 -132 9 -158 36 -167 169 -6 79 -8 85 -43 120 -37 37 -38 37 -122 37
-84 0 -85 0 -122 -37 -35 -35 -37 -41 -43 -120 -9 -133 -35 -160 -167 -169
-80 -5 -86 -7 -120 -42 -35 -34 -37 -40 -43 -119 -9 -133 -35 -160 -167 -169
-74 -5 -86 -8 -114 -35 -17 -16 -35 -38 -39 -49 -6 -13 -9 19 -9 85 -1 121
-12 168 -51 225 -28 40 -109 94 -146 96 -11 1 12 5 49 9 61 6 72 11 105 44 37
36 37 37 37 121 0 84 0 85 -37 122 -35 35 -41 37 -120 43 -94 6 -121 18 -148
63 -28 45 -28 159 0 204 27 45 54 57 148 63 79 6 85 8 120 43 37 37 37 38 37
122 0 84 0 85 -37 122 -35 35 -41 37 -120 43 -94 6 -121 18 -148 63 -28 45
-28 159 0 204 27 45 54 57 148 63 79 6 85 8 120 43 37 37 37 38 37 122 0 84 0
85 -37 122 -35 35 -41 37 -121 42 -132 9 -158 36 -167 169 -6 79 -8 85 -43
119 -34 35 -40 37 -119 43 -133 9 -160 35 -169 167 -5 80 -7 86 -42 121 l-37
37 -248 5 c-175 4 -254 9 -270 18 -41 23 -57 61 -63 149 -5 80 -7 86 -42 121
l-37 37 -238 2 c-130 1 -246 -2 -257 -6z m1166 -1326 c49 -26 69 -70 69 -150
0 -80 -20 -124 -69 -150 -44 -22 -478 -22 -522 0 -48 25 -69 70 -69 148 0 80
17 119 63 147 29 18 52 20 265 20 191 0 238 -3 263 -15z m330 -1658 c69 -45
69 -48 69 -472 0 -424 0 -427 -69 -472 -34 -23 -35 -23 -426 -23 -391 0 -392
0 -426 23 -69 46 -69 48 -69 477 0 367 1 387 20 418 11 18 34 41 52 52 31 19
51 20 424 20 390 0 391 0 425 -23z m330 -1972 c49 -26 69 -70 69 -150 0 -120
-45 -165 -165 -165 -119 0 -165 45 -165 163 0 121 45 167 163 167 42 0 79 -6
98 -15z"/>
<path d="M7607 2622 c-14 -15 -17 -42 -17 -150 0 -166 -4 -162 165 -162 170 0
165 -5 165 164 0 173 7 166 -167 166 -113 0 -132 -2 -146 -18z"/>
<path d="M8335 5601 c-11 -5 -33 -23 -50 -41 -28 -30 -30 -36 -30 -115 0 -84
0 -85 38 -122 37 -38 37 -38 122 -38 85 0 85 0 122 38 38 37 38 37 38 122 0
84 0 85 -37 122 -36 36 -41 38 -110 40 -40 2 -82 -1 -93 -6z"/>
<path d="M9655 5601 c-11 -5 -33 -23 -50 -41 -28 -30 -30 -36 -30 -115 0 -84
0 -85 38 -122 37 -38 37 -38 122 -38 85 0 85 0 122 38 38 37 38 37 38 122 0
84 0 85 -37 122 -36 36 -41 38 -110 40 -40 2 -82 -1 -93 -6z"/>
<path d="M745 5271 c-11 -5 -33 -23 -50 -41 -28 -30 -30 -36 -30 -115 0 -84 0
-85 38 -122 37 -38 37 -38 122 -38 85 0 85 0 122 38 38 37 38 37 38 122 0 84
0 85 -37 122 -36 36 -41 38 -110 40 -40 2 -82 -1 -93 -6z"/>
<path d="M3715 5271 c-11 -5 -33 -23 -50 -41 -28 -30 -30 -36 -30 -115 0 -84
0 -85 37 -122 35 -35 41 -37 121 -42 88 -6 126 -22 149 -63 9 -16 14 -95 18
-270 l5 -248 38 -37 c37 -38 37 -38 122 -38 85 0 85 0 122 38 l38 37 5 248 c6
317 8 321 168 332 79 6 85 8 120 43 37 37 37 38 37 122 0 85 0 85 -38 122
l-37 38 -403 2 c-221 1 -411 -2 -422 -6z"/>
<path d="M5365 5271 c-11 -5 -33 -23 -50 -41 -28 -30 -30 -36 -30 -115 0 -84
0 -85 37 -122 35 -35 41 -37 121 -42 132 -9 158 -36 167 -169 6 -79 8 -85 43
-120 37 -37 38 -37 122 -37 84 0 85 0 122 37 35 35 37 41 42 121 6 88 22 126
63 149 16 9 95 14 270 18 l248 5 37 38 c38 37 38 37 38 122 0 85 0 85 -38 122
l-37 38 -568 2 c-312 1 -576 -2 -587 -6z"/>
<path d="M8665 5271 c-11 -5 -33 -23 -50 -41 -28 -30 -30 -36 -30 -115 0 -84
0 -85 38 -122 l37 -38 250 0 250 0 37 38 c38 37 38 37 38 122 0 85 0 85 -38
122 l-37 38 -238 2 c-130 1 -246 -2 -257 -6z"/>
<path d="M1075 4941 c-11 -5 -33 -23 -50 -41 -28 -30 -30 -36 -30 -115 0 -84
0 -85 38 -122 37 -38 37 -38 122 -38 85 0 85 0 122 38 38 37 38 37 38 122 0
84 0 85 -37 122 -36 36 -41 38 -110 40 -40 2 -82 -1 -93 -6z"/>
<path d="M5035 4941 c-11 -5 -33 -23 -50 -41 -28 -30 -30 -36 -30 -115 0 -84
0 -85 38 -122 37 -38 37 -38 122 -38 85 0 85 0 122 38 38 37 38 37 38 122 0
84 0 85 -37 122 -36 36 -41 38 -110 40 -40 2 -82 -1 -93 -6z"/>
<path d="M9325 4941 c-11 -5 -33 -23 -50 -41 -28 -30 -30 -36 -30 -115 0 -84
0 -85 38 -122 37 -38 37 -38 122 -38 85 0 85 0 122 38 38 37 38 37 38 122 0
84 0 85 -37 122 -36 36 -41 38 -110 40 -40 2 -82 -1 -93 -6z"/>
<path d="M5365 4611 c-11 -5 -33 -23 -50 -41 -28 -30 -30 -36 -30 -115 0 -84
0 -85 38 -122 37 -38 37 -38 122 -38 85 0 85 0 122 38 38 37 38 37 38 122 0
84 0 85 -37 122 -36 36 -41 38 -110 40 -40 2 -82 -1 -93 -6z"/>
<path d="M8665 4611 c-11 -5 -33 -23 -50 -41 -28 -30 -30 -36 -30 -115 0 -84
0 -85 37 -122 35 -35 41 -37 121 -42 88 -6 126 -22 149 -63 9 -16 14 -95 18
-270 l5 -248 38 -37 c37 -38 37 -38 122 -38 85 0 85 0 122 38 l38 37 0 415 0
415 -38 37 -37 38 -238 2 c-130 1 -246 -2 -257 -6z"/>
<path d="M9655 4281 c-11 -5 -33 -23 -50 -41 -28 -30 -30 -36 -30 -115 0 -84
0 -85 38 -122 37 -38 37 -38 122 -38 85 0 85 0 122 38 38 37 38 37 38 122 0
84 0 85 -37 122 -36 36 -41 38 -110 40 -40 2 -82 -1 -93 -6z"/>
<path d="M3715 3951 c-11 -5 -33 -23 -50 -41 l-30 -31 -5 -247 c-4 -175 -9
-254 -18 -270 -23 -41 -61 -57 -149 -63 -80 -5 -86 -7 -121 -42 -37 -37 -37
-38 -37 -122 0 -85 0 -85 38 -122 l37 -38 250 0 250 0 37 38 38 37 0 415 0
415 -37 37 c-36 36 -41 38 -110 40 -40 2 -82 -1 -93 -6z"/>
<path d="M1075 3621 c-11 -5 -33 -23 -50 -41 -28 -30 -30 -36 -30 -115 0 -84
0 -85 38 -122 l37 -38 250 0 250 0 37 38 c38 37 38 37 38 122 0 85 0 85 -38
122 l-37 38 -238 2 c-130 1 -246 -2 -257 -6z"/>
<path d="M6355 3621 c-11 -5 -33 -23 -50 -41 -28 -30 -30 -36 -30 -115 0 -84
0 -85 38 -122 l37 -38 250 0 250 0 37 38 c38 37 38 37 38 122 0 85 0 85 -38
122 l-37 38 -238 2 c-130 1 -246 -2 -257 -6z"/>
<path d="M5035 3291 c-11 -5 -33 -23 -50 -41 -28 -30 -30 -36 -30 -115 0 -84
0 -85 38 -122 l37 -38 248 -5 c175 -4 254 -9 270 -18 41 -23 57 -61 63 -149 5
-80 7 -86 42 -121 37 -37 38 -37 122 -37 84 0 85 0 122 37 35 35 37 41 42 121
9 132 36 158 169 167 79 6 85 8 120 43 37 37 37 38 37 122 0 85 0 85 -38 122
l-37 38 -568 2 c-312 1 -576 -2 -587 -6z"/>
<path d="M3055 2961 c-11 -5 -33 -23 -50 -41 l-30 -31 0 -249 0 -250 38 -37
c37 -38 37 -38 122 -38 85 0 85 0 122 38 l38 37 0 250 0 250 -37 37 c-36 36
-41 38 -110 40 -40 2 -82 -1 -93 -6z"/>
<path d="M615 2630 c-137 -28 -240 -127 -271 -257 -18 -77 -20 -1681 -3 -1765
30 -140 134 -241 278 -268 73 -14 1659 -14 1732 0 75 14 137 47 187 99 52 53
76 98 91 169 17 84 15 1688 -3 1765 -25 108 -107 200 -218 245 -39 16 -117 17
-898 19 -470 0 -873 -3 -895 -7z m1540 -339 c61 -28 105 -70 131 -126 l24 -50
0 -630 c0 -612 -1 -631 -21 -675 -27 -60 -64 -98 -124 -126 l-50 -24 -630 0
-630 0 -50 24 c-60 28 -97 66 -124 126 -20 44 -21 63 -21 675 l0 630 24 50
c26 56 70 98 131 126 37 17 82 19 670 19 588 0 633 -2 670 -19z"/>
<path d="M1071 1958 c-79 -39 -81 -46 -81 -472 0 -352 1 -372 20 -412 40 -82
23 -79 475 -79 452 0 435 -3 475 79 19 40 20 60 20 412 0 427 -2 434 -82 473
-43 20 -56 21 -414 21 -358 0 -370 -1 -413 -22z"/>
<path d="M3715 2631 c-11 -5 -33 -23 -50 -41 -28 -30 -30 -36 -30 -115 0 -84
0 -85 37 -122 35 -35 41 -37 120 -43 46 -3 93 -11 106 -18 42 -24 62 -71 62
-145 0 -122 -45 -167 -165 -167 -77 0 -123 20 -147 62 -7 13 -15 60 -18 106
-6 79 -8 85 -43 120 -37 37 -38 37 -122 37 -84 0 -85 0 -122 -37 -35 -35 -37
-41 -42 -121 -9 -132 -36 -158 -169 -167 -79 -6 -85 -8 -120 -43 l-37 -37 0
-745 0 -745 38 -37 c37 -38 37 -38 122 -38 84 0 85 0 122 37 35 35 37 41 42
121 9 132 36 158 169 167 79 6 85 8 120 43 l37 37 0 250 0 250 -37 37 c-35 35
-41 37 -120 43 -94 6 -121 18 -148 63 -28 45 -28 159 0 204 35 58 29 58 477
63 l413 5 37 38 38 37 5 248 c6 317 8 321 168 332 79 6 85 8 120 43 37 37 37
38 37 122 0 85 0 85 -38 122 l-37 38 -403 2 c-221 1 -411 -2 -422 -6z"/>
<path d="M5365 2631 c-11 -5 -33 -23 -50 -41 -28 -30 -30 -36 -30 -115 0 -84
0 -85 38 -122 37 -38 37 -38 122 -38 85 0 85 0 122 38 38 37 38 37 38 122 0
84 0 85 -37 122 -36 36 -41 38 -110 40 -40 2 -82 -1 -93 -6z"/>
<path d="M5035 2301 c-11 -5 -33 -23 -50 -41 -28 -30 -30 -36 -30 -115 0 -84
0 -85 38 -122 37 -38 37 -38 122 -38 85 0 85 0 122 38 38 37 38 37 38 122 0
84 0 85 -37 122 -36 36 -41 38 -110 40 -40 2 -82 -1 -93 -6z"/>
<path d="M5695 2301 c-11 -5 -33 -23 -50 -41 -28 -30 -30 -36 -30 -115 0 -84
0 -85 38 -122 37 -38 37 -38 122 -38 85 0 85 0 122 38 38 37 38 37 38 122 0
84 0 85 -37 122 -36 36 -41 38 -110 40 -40 2 -82 -1 -93 -6z"/>
<path d="M6025 1971 c-11 -5 -33 -23 -50 -41 l-30 -31 -5 -247 c-5 -268 -8
-279 -63 -312 -29 -18 -52 -20 -267 -20 -215 0 -238 2 -267 20 -45 27 -57 54
-63 148 -6 79 -8 85 -43 120 l-37 37 -415 0 -415 0 -37 -38 c-38 -37 -38 -37
-38 -122 0 -84 0 -85 37 -122 35 -35 41 -37 120 -43 46 -3 93 -11 106 -18 42
-24 62 -70 62 -147 0 -77 -20 -123 -62 -147 -13 -7 -60 -15 -106 -18 -79 -6
-85 -8 -120 -43 l-37 -37 0 -250 0 -250 38 -37 c37 -38 37 -38 122 -38 84 0
85 0 122 37 35 35 37 41 42 121 9 132 36 158 169 167 79 6 85 8 119 43 35 34
37 40 43 119 6 94 18 121 63 148 45 28 159 28 204 0 45 -27 57 -54 63 -148 6
-79 8 -85 43 -120 l37 -37 250 0 250 0 37 37 c35 35 37 41 43 120 9 133 35
160 167 169 80 5 86 7 120 42 35 34 37 40 43 119 11 160 15 162 332 168 l248
5 37 38 c38 37 38 37 38 122 0 85 0 85 -38 122 l-37 38 -248 5 c-317 6 -321 8
-332 168 -6 79 -8 85 -43 120 -35 35 -41 37 -109 39 -40 2 -82 -1 -93 -6z"/>
<path d="M7015 981 c-11 -5 -33 -23 -50 -41 -28 -30 -30 -36 -30 -115 0 -84 0
-85 37 -122 35 -35 41 -37 121 -42 132 -9 158 -36 167 -169 6 -79 8 -85 43
-120 37 -37 38 -37 122 -37 85 0 85 0 122 38 l38 37 0 250 0 250 -38 37 -37
38 -238 2 c-130 1 -246 -2 -257 -6z"/>
<path d="M3715 651 c-11 -5 -33 -23 -50 -41 -28 -30 -30 -36 -30 -115 0 -84 0
-85 38 -122 37 -38 37 -38 122 -38 85 0 85 0 122 38 38 37 38 37 38 122 0 84
0 85 -37 122 -36 36 -41 38 -110 40 -40 2 -82 -1 -93 -6z"/>
<path d="M5035 651 c-11 -5 -33 -23 -50 -41 -28 -30 -30 -36 -30 -115 0 -84 0
-85 38 -122 37 -38 37 -38 122 -38 85 0 85 0 122 38 38 37 38 37 38 122 0 84
0 85 -37 122 -36 36 -41 38 -110 40 -40 2 -82 -1 -93 -6z"/>
<path d="M6025 651 c-11 -5 -33 -23 -50 -41 -28 -30 -30 -36 -30 -115 0 -84 0
-85 38 -122 37 -38 37 -38 122 -38 85 0 85 0 122 38 38 37 38 37 38 122 0 84
0 85 -37 122 -36 36 -41 38 -110 40 -40 2 -82 -1 -93 -6z"/>
<path d="M6685 651 c-11 -5 -33 -23 -50 -41 -28 -30 -30 -36 -30 -115 0 -84 0
-85 38 -122 37 -38 37 -38 122 -38 85 0 85 0 122 38 38 37 38 37 38 122 0 84
0 85 -37 122 -36 36 -41 38 -110 40 -40 2 -82 -1 -93 -6z"/>
</g>
</svg>
